<?xml version="1.0" standalone="no"?>
<!DOCTYPE svg PUBLIC "-//W3C//DTD SVG 20010904//EN"
 "http://www.w3.org/TR/2001/REC-SVG-20010904/DTD/svg10.dtd">
<svg version="1.0" xmlns="http://www.w3.org/2000/svg"
 width="858.000000pt" height="330.000000pt" viewBox="0 0 858.000000 330.000000"
 preserveAspectRatio="xMidYMid meet">

<g transform="translate(0.000000,330.000000) scale(0.100000,-0.100000)"
fill="#e74c3c" stroke="none">
<path d="M0 1650 l0 -1650 4290 0 4290 0 0 1650 0 1650 -4290 0 -4290 0 0
-1650z m1417 592 c116 -41 274 -151 273 -191 -1 -13 -84 -87 -187 -165 l-24
-19 -37 36 c-86 83 -204 109 -313 68 -126 -48 -199 -156 -207 -307 -8 -147 51
-255 170 -313 118 -58 236 -49 332 24 26 19 51 35 57 35 13 0 191 -124 209
-145 27 -33 -134 -156 -276 -212 -62 -24 -82 -27 -194 -28 -106 0 -136 4 -198
24 -371 121 -535 584 -330 930 81 137 251 255 408 285 14 2 77 3 140 2 88 -2
130 -8 177 -24z m1312 -2 c143 -51 275 -169 347 -312 88 -174 85 -405 -8 -581
-47 -90 -174 -214 -265 -260 -344 -170 -771 0 -884 352 -30 92 -37 273 -15
361 55 218 223 392 436 452 93 26 298 20 389 -12z m2556 -10 c79 -25 209 -86
226 -106 8 -10 3 -41 -22 -124 -18 -61 -38 -118 -44 -127 -10 -14 -23 -9 -106
40 -126 75 -171 90 -264 85 -64 -3 -79 -7 -100 -28 -38 -38 -42 -80 -11 -117
27 -32 42 -38 229 -98 135 -43 221 -94 268 -157 38 -53 48 -77 60 -151 25
-152 -56 -313 -192 -382 -160 -82 -406 -74 -603 20 -81 38 -173 102 -181 125
-6 20 68 263 82 267 6 2 44 -24 84 -57 120 -98 222 -139 347 -140 108 0 155
37 138 107 -13 48 -57 76 -196 122 -73 24 -157 54 -186 67 -69 31 -139 94
-172 159 -24 44 -27 61 -26 150 0 84 3 108 23 147 51 105 150 180 277 213 86
21 277 14 369 -15z m1265 -380 c3 -266 9 -403 17 -421 17 -39 62 -88 97 -106
19 -10 55 -17 92 -17 76 0 123 27 162 92 l27 47 5 400 5 400 150 0 150 0 3
-360 c4 -428 -2 -491 -59 -605 -141 -280 -537 -349 -794 -138 -51 42 -110 136
-137 217 -21 63 -22 87 -26 464 -2 220 -1 405 2 413 5 12 32 14 153 12 l148
-3 5 -395z m-2584 380 c183 -24 303 -115 360 -275 12 -35 18 -80 18 -150 1
-89 -2 -107 -28 -162 -29 -65 -112 -154 -154 -167 -12 -4 -22 -12 -22 -17 0
-6 17 -41 39 -77 70 -121 172 -334 167 -348 -7 -19 -319 -21 -333 -1 -5 6 -45
92 -89 189 l-79 178 -82 0 -83 0 0 -177 c0 -98 -4 -184 -8 -191 -7 -9 -44 -12
-153 -10 l-144 3 -3 594 c-1 430 1 598 9 607 9 11 63 14 263 14 138 0 283 -5
322 -10z m3782 -2 c14 -14 17 -1174 4 -1196 -7 -9 -44 -12 -153 -10 l-144 3
-3 599 c-2 473 0 601 10 608 21 13 272 10 286 -4z"/>
<path d="M2405 1965 c-212 -86 -272 -380 -115 -559 18 -20 61 -51 94 -68 159
-80 334 -12 414 161 23 47 27 70 27 146 -1 117 -32 192 -112 265 -89 82 -196
101 -308 55z"/>
<path d="M3680 1820 l0 -153 133 5 c149 5 197 20 223 70 30 57 15 138 -32 179
-34 29 -87 41 -206 46 l-118 6 0 -153z"/>
</g>
</svg>
