<?xml version="1.0" standalone="no"?>
<!DOCTYPE svg PUBLIC "-//W3C//DTD SVG 20010904//EN"
 "http://www.w3.org/TR/2001/REC-SVG-20010904/DTD/svg10.dtd">
<svg version="1.0" xmlns="http://www.w3.org/2000/svg"
 width="922.000000pt" height="312.000000pt" viewBox="0 0 922.000000 312.000000"
 preserveAspectRatio="xMidYMid meet">

<g transform="translate(0.000000,312.000000) scale(0.100000,-0.100000)"
fill="#e74c3c" stroke="none">
<path d="M1663 2679 c-54 -10 -91 -30 -130 -71 -65 -68 -67 -80 -73 -428 -5
-299 -6 -317 -27 -355 -27 -51 -90 -110 -170 -159 -97 -58 -97 -109 -1 -164
75 -42 134 -96 166 -150 l27 -47 5 -320 c5 -302 6 -322 27 -360 40 -76 93
-116 177 -135 55 -12 90 1 106 39 19 48 -1 78 -63 96 -95 28 -91 12 -97 374
l-5 316 -33 69 c-23 49 -52 87 -100 134 l-67 65 70 71 c78 78 112 139 126 225
5 31 9 179 9 329 l0 274 28 27 c17 17 43 30 69 34 63 10 93 65 59 109 -19 26
-56 35 -103 27z"/>
<path d="M2369 2678 c-31 -10 -51 -50 -43 -84 7 -27 50 -54 84 -54 12 0 35
-13 51 -29 l29 -29 0 -280 c0 -154 5 -303 10 -333 16 -81 47 -137 122 -214 37
-38 68 -70 68 -70 0 0 -29 -30 -64 -66 -74 -76 -110 -140 -125 -224 -6 -33
-11 -178 -11 -333 l0 -274 -29 -29 c-16 -16 -39 -29 -50 -29 -87 0 -120 -111
-41 -138 80 -28 198 39 244 138 20 42 21 67 26 360 l5 315 28 47 c29 50 78 94
169 152 90 57 91 106 4 155 -74 43 -141 105 -174 159 l-27 47 -5 320 c-4 287
-7 324 -24 355 -23 45 -73 98 -109 116 -40 21 -108 32 -138 22z"/>
<path d="M3584 2056 c-190 -43 -336 -193 -390 -396 -22 -82 -19 -231 5 -310
28 -90 86 -183 152 -244 200 -185 515 -194 708 -20 28 25 51 49 51 54 0 4 -25
27 -56 50 l-56 42 -40 -40 c-130 -135 -387 -128 -518 14 -75 82 -112 180 -112
303 0 132 29 212 106 298 60 67 120 101 208 119 112 23 216 -1 292 -68 l46
-40 48 38 c26 20 51 41 56 46 23 20 -93 105 -190 139 -77 27 -226 34 -310 15z"/>
<path d="M7883 2042 c-33 -5 -73 -58 -73 -96 0 -61 79 -112 132 -85 105 53 57
199 -59 181z"/>
<path d="M6792 1658 c4 -369 5 -385 26 -440 42 -104 127 -189 230 -229 45 -17
79 -22 158 -23 96 -1 103 0 176 36 111 55 181 142 212 263 13 48 16 126 16
417 l0 358 -69 0 -70 0 -3 -367 c-3 -362 -3 -369 -27 -420 -28 -62 -92 -125
-147 -144 -101 -34 -218 -6 -283 67 -72 82 -74 94 -79 502 l-4 362 -70 0 -70
0 4 -382z"/>
<path d="M4499 1696 c-277 -74 -366 -433 -155 -623 58 -52 93 -71 161 -89 172
-46 348 34 427 194 31 62 33 74 33 167 0 87 -3 107 -25 150 -29 58 -111 144
-161 170 -82 43 -191 55 -280 31z m162 -117 c101 -22 169 -118 169 -239 0 -75
-15 -124 -52 -166 -59 -67 -142 -93 -236 -73 -47 9 -65 20 -103 58 -53 52 -71
101 -70 194 0 110 69 203 168 226 53 13 65 13 124 0z"/>
<path d="M5417 1696 c-46 -17 -63 -29 -104 -75 l-33 -36 0 53 0 52 -65 0 -65
0 0 -350 0 -350 65 0 65 0 0 208 c0 119 5 224 11 247 23 82 110 132 212 122
l48 -4 -3 71 -3 71 -45 2 c-25 2 -62 -4 -83 -11z"/>
<path d="M5830 1695 c-128 -40 -195 -177 -140 -285 26 -51 80 -82 204 -116
117 -33 157 -61 158 -113 1 -44 -25 -66 -96 -81 -73 -15 -139 3 -193 53 -24
22 -30 20 -96 -36 l-28 -23 35 -36 c19 -19 56 -46 83 -59 41 -21 63 -24 153
-24 86 0 113 4 150 22 91 43 133 107 133 205 1 103 -60 156 -222 198 -107 27
-135 42 -150 79 -16 38 -7 68 27 85 68 35 145 27 200 -19 l30 -25 46 36 c25
19 46 39 46 44 0 19 -87 81 -134 95 -61 18 -146 18 -206 0z"/>
<path d="M7840 1340 l0 -350 65 0 65 0 0 350 0 350 -65 0 -65 0 0 -350z"/>
</g>
</svg>
